<?xml version="1.0" encoding="UTF-8"?>
<svg id="Layer_1" data-name="Layer 1" xmlns="http://www.w3.org/2000/svg" viewBox="0 0 243.14 245.43">
  <defs>
    <style>
      .cls-1 {
        fill: none;
        stroke: #e5e5ea;
        stroke-miterlimit: 10;
        stroke-width: 4px;
      }

      .cls-2 {
        fill: #e5e5ea;
      }
    </style>
  </defs>
  <path class="cls-2" d="m56.77,132.48s5.65,42.04,46.44,56.48h-.04c-40.79,14.43-46.44,56.48-46.44,56.48h-.08s-5.65-42.04-46.44-56.48h.04c40.79-14.43,46.44-56.48,46.44-56.48"/>
  <path class="cls-1" d="m185.06.27s5.65,42.04,46.44,56.48h-.04c-40.79,14.43-46.44,56.48-46.44,56.48h-.08s-5.65-42.04-46.44-56.48h.04C179.33,42.31,184.98.27,184.98.27"/>
  <path class="cls-2" d="m28.61,155.07C-8.27,125.2-9.16,68,24.01,34.79,56.6,1.02,113.85.89,144.35,37.26c-28.58-23.72-71.1-26.81-101.57-5.26C1.9,60.19-3.38,117.8,28.61,155.07h0Z"/>
  <path class="cls-2" d="m212.46,93.35c36.89,29.87,37.78,87.07,4.61,120.28-32.59,33.77-89.85,33.9-120.34-2.46,28.58,23.72,71.1,26.81,101.57,5.26,40.88-28.2,46.16-85.81,14.16-123.08h0Z"/>
</svg>