<?xml version="1.0" encoding="UTF-8"?>
<svg id="Layer_1" data-name="Layer 1" xmlns="http://www.w3.org/2000/svg" viewBox="0 0 378.94 161.05">
  <defs>
    <style>
      .cls-1 {
        fill: #5d5e80;
      }

      .cls-2 {
        fill: none;
      }

      .cls-2, .cls-3, .cls-4 {
        stroke: #f3f1f8;
      }

      .cls-2, .cls-4 {
        stroke-miterlimit: 10;
      }

      .cls-5 {
        fill: #e5e5ea;
      }

      .cls-6 {
        fill: #74738f;
      }

      .cls-6, .cls-7 {
        isolation: isolate;
        opacity: .6;
      }

      .cls-8 {
        fill: #586784;
      }

      .cls-3 {
        stroke-miterlimit: 10;
        stroke-width: 1px;
      }

      .cls-3, .cls-4 {
        fill: #faf3f8;
      }

      .cls-9, .cls-7 {
        fill: #fcf4f9;
      }
    </style>
  </defs>
  <g id="stars">
    <ellipse class="cls-1" cx="189.47" cy="80.52" rx="191.07" ry="76.61" transform="translate(-9.47 27.57) rotate(-8.12)"/>
    <ellipse class="cls-8" cx="189.47" cy="72.36" rx="142.76" ry="57.24" transform="translate(-8.32 27.49) rotate(-8.12)"/>
    <ellipse class="cls-6" cx="189.47" cy="72.36" rx="101.54" ry="40.71" transform="translate(-8.32 27.49) rotate(-8.12)"/>
    <path class="cls-7" d="m184.37,23.23c-25.45,3.63-43.14,27.21-39.51,52.66l92.17-13.15c-3.63-25.45-27.21-43.14-52.66-39.51Z"/>
    <ellipse class="cls-9" cx="190.99" cy="68.63" rx="46.99" ry="19.55" transform="translate(-7.7 27.29) rotate(-8.01)"/>
    <path class="cls-2" d="m92.8,72.37s-12.17,14.71,6.96,30.97"/>
    <path class="cls-2" d="m324.99,39.5s28.31,37.31-49.72,68.55"/>
    <ellipse class="cls-4" cx="289.92" cy="27.6" rx="2.85" ry="1.84"/>
    <ellipse class="cls-4" cx="145.81" cy="130.83" rx="1.43" ry="1.84"/>
    <ellipse class="cls-3" cx="97.61" cy="37.63" rx="2.85" ry="1.84" transform="translate(-5.81 21.86) rotate(-12.41)"/>
    <ellipse class="cls-3" cx="40.65" cy="99.25" rx="1.43" ry=".92" transform="translate(-20.38 11.05) rotate(-12.41)"/>
    <ellipse class="cls-4" cx="246.88" cy="75.62" rx="2.85" ry="1.84"/>
    <path class="cls-5" d="m237.03,15.39s.61,4.54,5.02,6.1h0c-4.41,1.56-5.02,6.1-5.02,6.1h0s-.61-4.54-5.02-6.1h0c4.41-1.56,5.02-6.1,5.02-6.1"/>
    <path class="cls-5" d="m75.11,136.93s.61,4.54,5.02,6.1h0c-4.41,1.56-5.02,6.1-5.02,6.1h0s-.61-4.54-5.02-6.1h0c4.41-1.56,5.02-6.1,5.02-6.1"/>
  </g>
</svg>