<?xml version="1.0" encoding="UTF-8"?>
<svg id="stars" xmlns="http://www.w3.org/2000/svg" viewBox="0 0 255.19 257.34">
  <defs>
    <style>
      .cls-1 {
        fill: #e5e5ea;
      }
    </style>
  </defs>
  <path class="cls-1" d="m65.6,70.59s1.22,9.09,10.04,12.21h0c-8.82,3.12-10.04,12.21-10.04,12.21h-.02s-1.22-9.09-10.04-12.21h0c8.82-3.12,10.04-12.21,10.04-12.21"/>
  <path class="cls-1" d="m104.53,30.5s1.22,9.09,10.04,12.21h0c-8.82,3.12-10.04,12.21-10.04,12.21h-.02s-1.22-9.09-10.04-12.21h0c8.82-3.12,10.04-12.21,10.04-12.21"/>
  <path class="cls-1" d="m170.37,62.94s1.22,9.09,10.04,12.21h0c-8.82,3.12-10.04,12.21-10.04,12.21h-.02s-1.22-9.09-10.04-12.21h0c8.82-3.12,10.04-12.21,10.04-12.21"/>
  <path class="cls-1" d="m140.17,135.77s1.22,9.09,10.04,12.21h0c-8.82,3.12-10.04,12.21-10.04,12.21h-.02s-1.22-9.09-10.04-12.21h0c8.82-3.12,10.04-12.21,10.04-12.21"/>
  <path class="cls-1" d="m128.8,91.55s1.22,9.09,10.04,12.21h0c-8.82,3.12-10.04,12.21-10.04,12.21h-.02s-1.22-9.09-10.04-12.21h0c8.82-3.12,10.04-12.21,10.04-12.21"/>
  <path class="cls-1" d="m192.05,125.03s1.22,9.09,10.04,12.21h0c-8.82,3.12-10.04,12.21-10.04,12.21h-.02s-1.22-9.09-10.04-12.21h0c8.82-3.12,10.04-12.21,10.04-12.21"/>
  <path class="cls-1" d="m164.48,175.86s1.22,9.09,10.04,12.21h0c-8.82,3.12-10.04,12.21-10.04,12.21h-.02s-1.22-9.09-10.04-12.21h0c8.82-3.12,10.04-12.21,10.04-12.21"/>
  <path class="cls-1" d="m88.28,128.78s1.22,9.09,10.04,12.21h0c-8.82,3.12-10.04,12.21-10.04,12.21h-.02s-1.22-9.09-10.04-12.21h0c8.82-3.12,10.04-12.21,10.04-12.21"/>
  <path class="cls-1" d="m167.49,3.31s1.22,9.09,10.04,12.21h0c-8.82,3.12-10.04,12.21-10.04,12.21h-.02s-1.22-9.09-10.04-12.21h0c8.82-3.12,10.04-12.21,10.04-12.21"/>
  <path class="cls-1" d="m242.46,91.55s1.22,9.09,10.04,12.21h0c-8.82,3.12-10.04,12.21-10.04,12.21h-.02s-1.22-9.09-10.04-12.21h0c8.82-3.12,10.04-12.21,10.04-12.21"/>
  <path class="cls-1" d="m216.04,190.9s1.22,9.09,10.04,12.21h0c-8.82,3.12-10.04,12.21-10.04,12.21h-.02s-1.22-9.09-10.04-12.21h0c8.82-3.12,10.04-12.21,10.04-12.21"/>
  <path class="cls-1" d="m98.33,216.83s1.22,9.09,10.04,12.21h0c-8.82,3.12-10.04,12.21-10.04,12.21h-.02s-1.22-9.09-10.04-12.21h0c8.82-3.12,10.04-12.21,10.04-12.21"/>
  <path class="cls-1" d="m10.06,109.45s1.22,9.09,10.04,12.21h0c-8.82,3.12-10.04,12.21-10.04,12.21h-.02s-1.22-9.09-10.04-12.21h0c8.82-3.12,10.04-12.21,10.04-12.21"/>
  <circle class="cls-1" cx="68.9" cy="51.61" r="3.31"/>
  <circle class="cls-1" cx="135.24" cy="3.31" r="3.31"/>
  <circle class="cls-1" cx="216.03" cy="58.23" r="3.31"/>
  <circle class="cls-1" cx="46.86" cy="160.18" r="3.31"/>
  <circle class="cls-1" cx="118.74" cy="188.07" r="3.31"/>
  <circle class="cls-1" cx="167.48" cy="232.35" r="3.31"/>
  <circle class="cls-1" cx="68.9" cy="212" r="3.31"/>
  <circle class="cls-1" cx="167.48" cy="109.45" r="3.31"/>
  <circle class="cls-1" cx="130.1" cy="70.59" r="3.31"/>
  <circle class="cls-1" cx="232.4" cy="149.45" r="3.31"/>
  <circle class="cls-1" cx="20.1" cy="78.46" r="3.31"/>
  <path class="cls-1" d="m80.67,3.31s.61,4.54,5.02,6.1h0c-4.41,1.56-5.02,6.1-5.02,6.1h0s-.61-4.54-5.02-6.1h0c4.41-1.56,5.02-6.1,5.02-6.1"/>
  <path class="cls-1" d="m35.18,27.73s.61,4.54,5.02,6.1h0c-4.41,1.56-5.02,6.1-5.02,6.1h0s-.61-4.54-5.02-6.1h0c4.41-1.56,5.02-6.1,5.02-6.1"/>
  <path class="cls-1" d="m16.8,169.76s.61,4.54,5.02,6.1h0c-4.41,1.56-5.02,6.1-5.02,6.1h0s-.61-4.54-5.02-6.1h0c4.41-1.56,5.02-6.1,5.02-6.1"/>
  <path class="cls-1" d="m43.56,216.83s.61,4.54,5.02,6.1h0c-4.41,1.56-5.02,6.1-5.02,6.1h0s-.61-4.54-5.02-6.1h0c4.41-1.56,5.02-6.1,5.02-6.1"/>
  <path class="cls-1" d="m122.06,245.14s.61,4.54,5.02,6.1h0c-4.41,1.56-5.02,6.1-5.02,6.1h0s-.61-4.54-5.02-6.1h0c4.41-1.56,5.02-6.1,5.02-6.1"/>
  <path class="cls-1" d="m202.1,222.93s.61,4.54,5.02,6.1h0c-4.41,1.56-5.02,6.1-5.02,6.1h0s-.61-4.54-5.02-6.1h0c4.41-1.56,5.02-6.1,5.02-6.1"/>
  <path class="cls-1" d="m242.45,172.55s.61,4.54,5.02,6.1h0c-4.41,1.56-5.02,6.1-5.02,6.1h0s-.61-4.54-5.02-6.1h0c4.41-1.56,5.02-6.1,5.02-6.1"/>
  <path class="cls-1" d="m250.18,67.79s.61,4.54,5.02,6.1h0c-4.41,1.56-5.02,6.1-5.02,6.1h0s-.61-4.54-5.02-6.1h0c4.41-1.56,5.02-6.1,5.02-6.1"/>
  <path class="cls-1" d="m211.01,15.52s.61,4.54,5.02,6.1h0c-4.41,1.56-5.02,6.1-5.02,6.1h0s-.61-4.54-5.02-6.1h0c4.41-1.56,5.02-6.1,5.02-6.1"/>
</svg>