<?xml version="1.0" encoding="UTF-8" standalone="no"?>
<!-- Created with Inkscape (http://www.inkscape.org/) -->

<svg
   width="297mm"
   height="210mm"
   viewBox="0 0 297 210"
   version="1.1"
   id="svg2614"
   inkscape:version="1.2.1 (9c6d41e410, 2022-07-14)"
   sodipodi:docname="hero illustration.svg"
   inkscape:export-filename="hero illustration.png"
   inkscape:export-xdpi="96"
   inkscape:export-ydpi="96"
   xmlns:inkscape="http://www.inkscape.org/namespaces/inkscape"
   xmlns:sodipodi="http://sodipodi.sourceforge.net/DTD/sodipodi-0.dtd"
   xmlns="http://www.w3.org/2000/svg"
   xmlns:svg="http://www.w3.org/2000/svg">
  <sodipodi:namedview
     id="namedview2616"
     pagecolor="#ffffff"
     bordercolor="#000000"
     borderopacity="0.25"
     inkscape:showpageshadow="2"
     inkscape:pageopacity="0.0"
     inkscape:pagecheckerboard="0"
     inkscape:deskcolor="#d1d1d1"
     inkscape:document-units="mm"
     showgrid="false"
     inkscape:zoom="0.3881689"
     inkscape:cx="758.69035"
     inkscape:cy="408.3274"
     inkscape:window-width="1728"
     inkscape:window-height="1052"
     inkscape:window-x="1699"
     inkscape:window-y="-8"
     inkscape:window-maximized="1"
     inkscape:current-layer="layer1" />
  <defs
     id="defs2611" />
  <g
     inkscape:label="Layer 1"
     inkscape:groupmode="layer"
     id="layer1">
    <rect
       style="opacity:0.77979275;fill:#02021c;fill-opacity:1;stroke-width:0.3;stroke-linejoin:bevel;paint-order:markers stroke fill"
       id="rect3690"
       width="297.62924"
       height="210.16525"
       x="0"
       y="0" />
    <path
       style="opacity:0.1;fill:#e9e8ed;fill-opacity:0.945098;stroke-width:0.3;stroke-linejoin:bevel;paint-order:markers stroke fill"
       d="m 296.85358,123.72419 c 0,0 -55.73921,-60.384163 -111.47843,-33.359085 C 129.63592,117.39018 109.85942,41.26136 87.409236,66.295894 58.51025,98.521587 -43.694743,40.009142 59.760636,170.4896 163.21601,300.97005 193.82048,230.13543 193.82048,230.13543 L 300.654,227.17956 Z"
       id="path7270"
       sodipodi:nodetypes="csssccc" />
    <path
       style="opacity:0.5;fill:#e9e8ed;fill-opacity:0.945098;stroke-width:0.0969632;stroke-linejoin:bevel;paint-order:markers stroke fill"
       d="m 265.53046,27.880194 c 0,0 -0.71624,4.996618 -4.22204,6.956824 0,0 3.43041,2.459876 4.29743,6.956825 0,0 1.62096,-6.111238 4.29743,-6.803074 0,0 -2.94035,-1.229938 -4.37282,-7.110575 z"
       id="path7176-2" />
    <path
       style="opacity:0.75;fill:#3f4a66;fill-opacity:1;stroke-width:0.341768;stroke-linejoin:bevel;paint-order:markers stroke fill"
       d="m -14.782908,17.00881 c 0,0 82.807135,-2.264587 143.609578,14.719819 60.80244,16.984408 122.18395,38.214916 157.50727,21.372047 35.32332,-16.842872 -91.20365,-27.882736 -91.20365,-27.882736 0,0 -118.709532,-14.436746 63.98733,-22.5043393 182.69685,-8.0675934 -277.954023,-8.2091302 -277.954023,-8.2091302 z"
       id="path2791" />
    <ellipse
       style="display:inline;opacity:0.75;fill:#e9e8ed;fill-opacity:0.945098;stroke-width:0.679706;stroke-linejoin:bevel;paint-order:markers stroke fill"
       id="path5164-5-8"
       cx="187.72107"
       cy="163.25784"
       rx="3.4608052"
       ry="3.3034956" />
    <path
       style="opacity:0.5;fill:#6d809f;fill-opacity:1;stroke-width:0.227377;stroke-linejoin:bevel;paint-order:markers stroke fill"
       d="m 313.10253,160.67384 c 0,0 -53.8542,15.05213 -42.55147,28.39379 11.30273,13.34167 -33.57576,11.46015 -33.57576,11.46015 0,0 -57.17853,2.39466 -41.8866,11.11805 15.29193,8.7234 -46.87309,9.40758 -46.87309,9.40758 0,0 -128.651698,2.9078 -35.9028,-36.43299 92.74889,-39.3408 81.44616,-11.2891 81.44616,-11.2891 0,0 -8.9757,27.53856 32.24603,-14.02586 41.22173,-41.5644 87.76239,-15.22317 87.76239,-15.22317 z"
       id="path5760" />
    <ellipse
       style="display:inline;opacity:0.75;fill:#e9e8ed;fill-opacity:0.945098;stroke-width:0.679706;stroke-linejoin:bevel;paint-order:markers stroke fill"
       id="path5164-5-8-8-9"
       cx="27.057201"
       cy="137.48834"
       rx="3.4608052"
       ry="3.3034956" />
    <path
       style="opacity:0.75;fill:#3f4a66;fill-opacity:1;stroke-width:0.275299;stroke-linejoin:bevel;paint-order:markers stroke fill"
       d="m -3.6244182,17.140569 c 0,0 34.6462352,-6.24925 42.0833852,27.948036 7.437151,34.197305 18.864966,40.446558 18.864966,40.446558 0,0 25.213752,15.102347 -4.716242,54.333767 -29.929993,39.2314 -9.432482,49.29966 -9.432482,49.29966 0,0 25.757934,15.79671 -14.692905,20.31005 -40.450842,4.51335 -34.8276308,-1.90948 -34.8276308,-1.90948 z"
       id="path5788" />
    <ellipse
       style="display:inline;opacity:0.75;fill:#e9e8ed;fill-opacity:0.945098;stroke-width:0.489898;stroke-linejoin:bevel;paint-order:markers stroke fill"
       id="path5164-5-8-8-9-7"
       cx="20.750809"
       cy="36.639652"
       rx="2.3596399"
       ry="2.5169489" />
    <path
       style="opacity:0.5;fill:#6d809f;fill-opacity:1;stroke-width:0.3;stroke-linejoin:bevel;paint-order:markers stroke fill"
       d="m 0.63850463,25.99849 c 0,0 28.64704337,6.006907 29.61813037,33.577069 0.971084,27.570165 24.762697,37.119608 24.762697,37.119608 0,0 21.363898,3.080462 -14.080749,40.200073 -35.4446475,37.1196 -4.36989,55.91044 -4.36989,55.91044 0,0 31.074759,13.09198 -34.4735591,13.55405 C -63.453185,206.8218 0.63850463,25.99849 0.63850463,25.99849 Z"
       id="path6840" />
    <ellipse
       style="display:inline;opacity:0.75;fill:#e9e8ed;fill-opacity:0.945098;stroke-width:0.3;stroke-linejoin:bevel;paint-order:markers stroke fill"
       id="path5164"
       cx="243.35753"
       cy="119.55508"
       rx="1.4157839"
       ry="1.5730932" />
    <ellipse
       style="display:inline;opacity:0.75;fill:#e9e8ed;fill-opacity:0.945098;stroke-width:0.3;stroke-linejoin:bevel;paint-order:markers stroke fill"
       id="path5164-5"
       cx="81.147469"
       cy="43.985355"
       rx="1.4157839"
       ry="1.5730932" />
    <ellipse
       style="display:inline;opacity:0.75;fill:#e9e8ed;fill-opacity:0.945098;stroke-width:0.679706;stroke-linejoin:bevel;paint-order:markers stroke fill"
       id="path5164-5-8-8"
       cx="189.71504"
       cy="24.540253"
       rx="3.4608052"
       ry="3.3034956" />
    <ellipse
       style="display:inline;opacity:0.75;fill:#e9e8ed;fill-opacity:0.945098;stroke-width:0.489898;stroke-linejoin:bevel;paint-order:markers stroke fill"
       id="path5164-5-8-8-9-7-1"
       cx="277.17902"
       cy="186.25424"
       rx="2.3596399"
       ry="2.5169489" />
    <ellipse
       style="display:inline;opacity:0.75;fill:#e9e8ed;fill-opacity:0.945098;stroke-width:0.489898;stroke-linejoin:bevel;paint-order:markers stroke fill"
       id="path5164-5-8-8-9-7-1-5"
       cx="101.93645"
       cy="11.640888"
       rx="2.3596399"
       ry="2.5169489" />
    <ellipse
       style="display:inline;opacity:0.75;fill:#e9e8ed;fill-opacity:0.945098;stroke-width:0.3;stroke-linejoin:bevel;paint-order:markers stroke fill"
       id="path5164-0"
       cx="100.85803"
       cy="159.69725"
       rx="1.4157839"
       ry="1.5730932" />
    <path
       style="opacity:0.5;fill:#e9e8ed;fill-opacity:0.945098;stroke-width:0.0754484;stroke-linejoin:bevel;paint-order:markers stroke fill"
       d="m 56.069462,169.91034 c 0,0 -0.71624,3.02526 -4.22204,4.21209 0,0 3.43041,1.48936 4.29743,4.21209 0,0 1.62096,-3.70012 4.29743,-4.119 0,0 -2.94035,-0.74468 -4.37282,-4.30518 z"
       id="path7176" />
    <path
       style="opacity:0.5;fill:#e9e8ed;fill-opacity:0.945098;stroke-width:0.07914;stroke-linejoin:bevel;paint-order:markers stroke fill"
       d="m 47.218495,88.89775 c 0,0 -0.71624,3.328547 -4.22204,4.634358 0,0 3.43041,1.63867 4.29743,4.63436 0,0 1.62096,-4.071064 4.29743,-4.531938 0,0 -2.94035,-0.819335 -4.37282,-4.73678 z"
       id="path7176-2-6" />
    <path
       style="opacity:0.5;fill:#e9e8ed;fill-opacity:0.945098;stroke-width:0.0860494;stroke-linejoin:bevel;paint-order:markers stroke fill"
       d="m 254.97379,179.89626 c 0,0 -0.71624,3.93511 -4.22204,5.47888 0,0 3.43041,1.93729 4.29743,5.4789 0,0 1.62096,-4.81295 4.29743,-5.35781 0,0 -2.94035,-0.96864 -4.37282,-5.59997 z"
       id="path7176-2-6-5" />
    <path
       style="opacity:0.5;fill:#e9e8ed;fill-opacity:0.945098;stroke-width:0.0860494;stroke-linejoin:bevel;paint-order:markers stroke fill"
       d="m 146.87347,57.016605 c 0,0 -0.71624,3.93511 -4.22204,5.47888 0,0 3.43041,1.93729 4.29743,5.4789 0,0 1.62096,-4.81295 4.29743,-5.35781 0,0 -2.94035,-0.96864 -4.37282,-5.59997 z"
       id="path7176-2-6-5-1" />
  </g>
</svg>
