<?xml version="1.0" encoding="UTF-8"?>
<svg xmlns="http://www.w3.org/2000/svg" viewBox="0 0 479.85 435.99">
  <defs>
    <style>
      .cls-1 {
        fill: #586784;
      }

      .cls-1, .cls-2 {
        opacity: .6;
      }

      .cls-3 {
        fill: #e5e5ea;
      }

      .cls-2 {
        fill: #74738f;
      }
    </style>
  </defs>
  <g id="dust_clouds" data-name="dust clouds">
    <path class="cls-1" d="m181.81,4.57S58.47,23.52,70.89,119.15s-27.03,136.46-27.03,136.46c0,0-129.1,111.17,55.72,99.03s213.31-151.33,213.31-151.33c0,0,24.86-153.77,6.74-184.67S181.81,4.57,181.81,4.57Z"/>
    <path class="cls-2" d="m73.71,322.06s79.06,122.89,201.52,91.38c122.46-31.51,109.24-163.72,109.24-163.72,0,0-23.45-62.85,24.54-7.84,47.99,55.01,68.64-30.85,68.64-30.85,0,0,44.41-147.41-265.68-107.09C34.67,126.99,57.05,242.34,57.05,242.34l16.67,79.72Z"/>
  </g>
  <g id="stars">
    <path class="cls-3" d="m129.19,61.33s1.22,9.09,10.04,12.21h0c-8.82,3.12-10.04,12.21-10.04,12.21h-.02s-1.22-9.09-10.04-12.21h0c8.82-3.12,10.04-12.21,10.04-12.21"/>
    <path class="cls-3" d="m239.59,77.48s1.22,9.09,10.04,12.21h0c-8.82,3.12-10.04,12.21-10.04,12.21h-.02s-1.22-9.09-10.04-12.21h0c8.82-3.12,10.04-12.21,10.04-12.21"/>
    <path class="cls-3" d="m78.44,282.23s1.22,9.09,10.04,12.21h0c-8.82,3.12-10.04,12.21-10.04,12.21h-.02s-1.22-9.09-10.04-12.21h0c8.82-3.12,10.04-12.21,10.04-12.21"/>
    <path class="cls-3" d="m262.6,191.88s1.22,9.09,10.04,12.21h0c-8.82,3.12-10.04,12.21-10.04,12.21h-.02s-1.22-9.09-10.04-12.21h0c8.82-3.12,10.04-12.21,10.04-12.21"/>
    <path class="cls-3" d="m308.76,268.23s1.22,9.09,10.04,12.21h0c-8.82,3.12-10.04,12.21-10.04,12.21h-.02s-1.22-9.09-10.04-12.21h0c8.82-3.12,10.04-12.21,10.04-12.21"/>
    <path class="cls-3" d="m274.48,318.27s1.22,9.09,10.04,12.21h0c-8.82,3.12-10.04,12.21-10.04,12.21h-.02s-1.22-9.09-10.04-12.21h0c8.82-3.12,10.04-12.21,10.04-12.21"/>
    <path class="cls-3" d="m313.76,75.82s1.22,9.09,10.04,12.21h0c-8.82,3.12-10.04,12.21-10.04,12.21h-.02s-1.22-9.09-10.04-12.21h0c8.82-3.12,10.04-12.21,10.04-12.21"/>
    <path class="cls-3" d="m189.41,336.47s1.22,9.09,10.04,12.21h0c-8.82,3.12-10.04,12.21-10.04,12.21h-.02s-1.22-9.09-10.04-12.21h0c8.82-3.12,10.04-12.21,10.04-12.21"/>
    <path class="cls-3" d="m145.98,235.19s1.22,9.09,10.04,12.21h0c-8.82,3.12-10.04,12.21-10.04,12.21h-.02s-1.22-9.09-10.04-12.21h0c8.82-3.12,10.04-12.21,10.04-12.21"/>
    <circle class="cls-3" cx="194.77" cy="119.06" r="3.31"/>
    <circle class="cls-3" cx="254.54" cy="32.25" r="3.31"/>
    <circle class="cls-3" cx="376.65" cy="119.06" r="3.31"/>
    <circle class="cls-3" cx="223.11" cy="231.88" r="3.31"/>
    <circle class="cls-3" cx="239.57" cy="295.95" r="3.31"/>
    <circle class="cls-3" cx="255.97" cy="391.24" r="3.31"/>
    <circle class="cls-3" cx="125.86" cy="348.68" r="3.31"/>
    <circle class="cls-3" cx="317.05" cy="216.3" r="3.31"/>
    <circle class="cls-3" cx="259.28" cy="149.71" r="3.31"/>
    <circle class="cls-3" cx="327.1" cy="153.03" r="3.31"/>
    <circle class="cls-3" cx="149.28" cy="157.59" r="3.31"/>
    <path class="cls-3" d="m198.08,46.25s.61,4.54,5.02,6.1h0c-4.41,1.56-5.02,6.1-5.02,6.1h0s-.61-4.54-5.02-6.1h0c4.41-1.56,5.02-6.1,5.02-6.1"/>
    <path class="cls-3" d="m177.76,193.7s.61,4.54,5.02,6.1h0c-4.41,1.56-5.02,6.1-5.02,6.1h0s-.61-4.54-5.02-6.1h0c4.41-1.56,5.02-6.1,5.02-6.1"/>
    <path class="cls-3" d="m145.97,379.03s.61,4.54,5.02,6.1h0c-4.41,1.56-5.02,6.1-5.02,6.1h0s-.61-4.54-5.02-6.1h0c4.41-1.56,5.02-6.1,5.02-6.1"/>
    <path class="cls-3" d="m172.73,295.95s.61,4.54,5.02,6.1h0c-4.41,1.56-5.02,6.1-5.02,6.1h0s-.61-4.54-5.02-6.1h0c4.41-1.56,5.02-6.1,5.02-6.1"/>
    <path class="cls-3" d="m194.43,423.78s.61,4.54,5.02,6.1h0c-4.41,1.56-5.02,6.1-5.02,6.1h0s-.61-4.54-5.02-6.1h0c4.41-1.56,5.02-6.1,5.02-6.1"/>
    <path class="cls-3" d="m331.27,302.06s.61,4.54,5.02,6.1h0c-4.41,1.56-5.02,6.1-5.02,6.1h0s-.61-4.54-5.02-6.1h0c4.41-1.56,5.02-6.1,5.02-6.1"/>
    <path class="cls-3" d="m371.63,251.68s.61,4.54,5.02,6.1h0c-4.41,1.56-5.02,6.1-5.02,6.1h0s-.61-4.54-5.02-6.1h0c4.41-1.56,5.02-6.1,5.02-6.1"/>
    <path class="cls-3" d="m407.7,170.68s.61,4.54,5.02,6.1h0c-4.41,1.56-5.02,6.1-5.02,6.1h0s-.61-4.54-5.02-6.1h0c4.41-1.56,5.02-6.1,5.02-6.1"/>
    <path class="cls-3" d="m86.76,168.94s.61,4.54,5.02,6.1h0c-4.41,1.56-5.02,6.1-5.02,6.1h0s-.61-4.54-5.02-6.1h0c4.41-1.56,5.02-6.1,5.02-6.1"/>
  </g>
</svg>