<?xml version="1.0" encoding="UTF-8"?>
<svg id="Layer_1" data-name="Layer 1" xmlns="http://www.w3.org/2000/svg" viewBox="0 0 146.55 169.77">
  <defs>
    <style>
      .cls-1 {
        fill: #c7d2ec;
      }

      .cls-2 {
        fill: #e5e5ea;
      }
    </style>
  </defs>
  <path class="cls-2" d="m10.06,40.08s1.22,9.09,10.04,12.21h0c-8.82,3.12-10.04,12.21-10.04,12.21h-.02s-1.22-9.09-10.04-12.21h0c8.82-3.12,10.04-12.21,10.04-12.21"/>
  <path class="cls-2" d="m48.99,0s1.22,9.09,10.04,12.21h0c-8.82,3.12-10.04,12.21-10.04,12.21h-.02s-1.22-9.09-10.04-12.21h0C47.75,9.09,48.97,0,48.97,0"/>
  <path class="cls-2" d="m114.83,32.44s1.22,9.09,10.04,12.21h0c-8.82,3.12-10.04,12.21-10.04,12.21h-.02s-1.22-9.09-10.04-12.21h0c8.82-3.12,10.04-12.21,10.04-12.21"/>
  <path class="cls-2" d="m84.63,105.27s1.22,9.09,10.04,12.21h0c-8.82,3.12-10.04,12.21-10.04,12.21h-.02s-1.22-9.09-10.04-12.21h0c8.82-3.12,10.04-12.21,10.04-12.21"/>
  <path class="cls-2" d="m73.26,61.05s1.22,9.09,10.04,12.21h0c-8.82,3.12-10.04,12.21-10.04,12.21h-.02s-1.22-9.09-10.04-12.21h0c8.82-3.12,10.04-12.21,10.04-12.21"/>
  <path class="cls-2" d="m136.51,94.53s1.22,9.09,10.04,12.21h0c-8.82,3.12-10.04,12.21-10.04,12.21h-.02s-1.22-9.09-10.04-12.21h0c8.82-3.12,10.04-12.21,10.04-12.21"/>
  <path class="cls-2" d="m108.94,145.36s1.22,9.09,10.04,12.21h0c-8.82,3.12-10.04,12.21-10.04,12.21h-.02s-1.22-9.09-10.04-12.21h0c8.82-3.12,10.04-12.21,10.04-12.21"/>
  <path class="cls-2" d="m32.74,98.28s1.22,9.09,10.04,12.21h0c-8.82,3.12-10.04,12.21-10.04,12.21h-.02s-1.22-9.09-10.04-12.21h0c8.82-3.12,10.04-12.21,10.04-12.21"/>
  <path class="cls-1" d="m59.03,141.77s.79,5.88,6.49,7.9h0c-5.7,2.02-6.49,7.9-6.49,7.9h-.01s-.79-5.88-6.49-7.9h0c5.7-2.02,6.49-7.9,6.49-7.9"/>
  <path class="cls-1" d="m84.62,16.52s.79,5.88,6.49,7.9h0c-5.7,2.02-6.49,7.9-6.49,7.9h-.01s-.79-5.88-6.49-7.9h0c5.7-2.02,6.49-7.9,6.49-7.9"/>
  <path class="cls-1" d="m16.56,77.57s.79,5.88,6.49,7.9h0c-5.7,2.02-6.49,7.9-6.49,7.9h-.01s-.79-5.88-6.49-7.9h0c5.7-2.02,6.49-7.9,6.49-7.9"/>
  <path class="cls-1" d="m105.39,79.8s.79,5.88,6.49,7.9h0c-5.7,2.02-6.49,7.9-6.49,7.9h-.01s-.79-5.88-6.49-7.9h0c5.7-2.02,6.49-7.9,6.49-7.9"/>
</svg>