<?xml version="1.0" encoding="UTF-8"?>
<svg id="stars" xmlns="http://www.w3.org/2000/svg" viewBox="0 0 336.84 386.62">
  <defs>
    <style>
      .cls-1, .cls-2 {
        fill: #74738f;
      }

      .cls-3 {
        fill: #e5e5ea;
      }

      .cls-4 {
        fill: #63738f;
      }

      .cls-2 {
        stroke: #74738f;
        stroke-miterlimit: 10;
      }
    </style>
  </defs>
  <path class="cls-1" d="m275.25,357.08c-91.49,64.32-220.71,17.78-262.91-83.24-18.02-42.59-16.21-92.54,4.92-133.69,20.71-41.17,60.14-72.72,105.14-82.95,52.85-12.02,111.66,10.55,141.84,55.7,40.81,57.45,20.3,137.82-45.46,165.05-40.6,16.94-89.93-.9-109.73-40.08-3.54-6.94-6.19-14.47-7.36-22.19-4.61-26.92,8.31-55.72,31.57-69.78,9.81-6.24,21.52-9.72,33.13-9.25,23.29.55,44.9,17.1,50.68,39.72,5.96,22.8-8.3,47.7-31.54,52.81-22.85,5.1-47.05-16.36-39.09-39.68,2.42-6.91,7.78-12.62,14.31-15.4,0,0,2.62,5.4,2.62,5.4-9.61,5.1-13.13,18.05-7.17,27.07,9.02,14.37,27.99,14.67,38.68,2.02,5.36-6.05,7.89-14.35,6.8-22.26-.83-6.64-4.36-12.65-9.1-17.56-12.03-12.2-30.68-13.81-44.67-4.15-18.12,12.11-24.66,36.26-14.43,55.5,9.39,18.49,29.99,30.29,50.47,29.08,19.33-.9,36.9-13.33,47.29-29.08,16.65-25.34,14.13-57.03-4.49-80.45-27.35-35.74-76.45-43.7-113.35-18.43-40.41,26.07-60.3,78.31-48.33,124.74,4.53,17.49,13,33.78,23.73,48.38,33.56,45.48,91.36,69.33,147.74,63.96,11.97-1.04,24.02-3.31,36.11-6.62,0,0,2.62,5.4,2.62,5.4h0Z"/>
  <circle class="cls-2" cx="178.16" cy="191.9" r="39.56"/>
  <path class="cls-3" d="m222.71,312.75s1.22,9.09,10.04,12.21h0c-8.82,3.12-10.04,12.21-10.04,12.21h-.02s-1.22-9.09-10.04-12.21h0c8.82-3.12,10.04-12.21,10.04-12.21"/>
  <path class="cls-3" d="m184.67,72.47s1.22,9.09,10.04,12.21h0c-8.82,3.12-10.04,12.21-10.04,12.21h-.02s-1.22-9.09-10.04-12.21h0c8.82-3.12,10.04-12.21,10.04-12.21"/>
  <path class="cls-3" d="m10.82,208.71s1.22,9.09,10.04,12.21h0c-8.82,3.12-10.04,12.21-10.04,12.21h-.02s-1.22-9.09-10.04-12.21h0c8.82-3.12,10.04-12.21,10.04-12.21"/>
  <path class="cls-3" d="m134.86,219.25s.61,4.54,5.02,6.1h0c-4.41,1.56-5.02,6.1-5.02,6.1h0s-.61-4.54-5.02-6.1h0c4.41-1.56,5.02-6.1,5.02-6.1"/>
  <path class="cls-3" d="m68.05,93.41s.61,4.54,5.02,6.1h0c-4.41,1.56-5.02,6.1-5.02,6.1h0s-.61-4.54-5.02-6.1h0c4.41-1.56,5.02-6.1,5.02-6.1"/>
  <path class="cls-3" d="m268.92,207.04s.61,4.54,5.02,6.1h0c-4.41,1.56-5.02,6.1-5.02,6.1h0s-.61-4.54-5.02-6.1h0c4.41-1.56,5.02-6.1,5.02-6.1"/>
  <path class="cls-3" d="m80.8,318.86s.61,4.54,5.02,6.1h0c-4.41,1.56-5.02,6.1-5.02,6.1h0s-.61-4.54-5.02-6.1h0c4.41-1.56,5.02-6.1,5.02-6.1"/>
  <circle class="cls-3" cx="209.45" cy="199.19" r="3.2"/>
  <circle class="cls-3" cx="263.89" cy="108.81" r="3.2"/>
  <circle class="cls-3" cx="37.15" cy="161.05" r="3.2"/>
  <circle class="cls-3" cx="75.77" cy="274.59" r="3.2"/>
  <path class="cls-4" d="m72.27,27.65C149.27-20.99,252.47,3.74,305.03,76.88c27.11,37.01,38.19,81.51,28.19,126.64-8.07,36.95-30.55,70.6-61.72,92.01-14.79,10.27-31.47,18.21-49.05,22.27-49.57,11.74-104.72-9.04-133.31-51.34-16.83-23.68-24.26-54.2-17.96-82.7,7.25-35.54,34.92-66.26,70.06-75.66,35.41-9.84,75.76,7.65,92.45,40.3,14.31,26.53,8.9,59.59-13.43,79.8-1.42,1.09-4.81,4.09-6.35,4.97-2.08,1.39-4.62,3.07-6.88,4.14-7.99,4.34-17.23,6.52-26.28,6.27-14.49-.32-28.63-6.99-37.9-18.06-6.95-8.17-11.58-18.73-11.36-29.59-.27-25.77,26.67-48.5,51.46-36.77,9.53,4.56,16.87,13.83,17.76,24.45.96,10.44-5.24,21.12-14.79,25.24,0,0-1.75-3.6-1.75-3.6,10.33-5.14,14.3-19.09,8.13-28.73-5.47-9.69-17.7-14.6-28.23-11.55-13.69,3.89-23.26,18.68-21.41,32.78.76,7.34,4.53,14.11,9.54,19.42,12.88,13.64,33.53,15.75,49.04,5.43,19.01-12.24,26.9-36.5,18.5-57.43-9.1-22.33-32.65-37.43-56.61-36.44-21.34.6-40.93,13.88-52.67,31.13-15.06,21.81-17.16,51.55-4.94,75.03,22.97,45.76,79.9,64.77,125.12,40.57,54.15-28.15,79.11-95.15,57.14-151.98-22.34-58.09-79.85-98.31-141.91-102.09-24.2-1.68-48.66,1.87-71.84,9.85,0,0-1.75-3.6-1.75-3.6h0Z"/>
  <path class="cls-3" d="m310.02,194.84s1.22,9.09,10.04,12.21h0c-8.82,3.12-10.04,12.21-10.04,12.21h-.02s-1.22-9.09-10.04-12.21h0c8.82-3.12,10.04-12.21,10.04-12.21"/>
  <path class="cls-3" d="m192.28,0s.61,4.54,5.02,6.1h0c-4.41,1.56-5.02,6.1-5.02,6.1h0s-.61-4.54-5.02-6.1h0C191.66,4.54,192.27,0,192.27,0"/>
  <circle class="cls-3" cx="303.16" cy="99.51" r="3.2"/>
  <path class="cls-3" d="m249.73,48.5s.61,4.54,5.02,6.1h0c-4.41,1.56-5.02,6.1-5.02,6.1h0s-.61-4.54-5.02-6.1h0c4.41-1.56,5.02-6.1,5.02-6.1"/>
  <path class="cls-3" d="m129.84,267.27s1.22,9.09,10.04,12.21h0c-8.82,3.12-10.04,12.21-10.04,12.21h-.02s-1.22-9.09-10.04-12.21h0c8.82-3.12,10.04-12.21,10.04-12.21"/>
</svg>